<mxfile host="app.diagrams.net" modified="2023-05-21T15:27:43.695Z" agent="Mozilla/5.0 (X11; Ubuntu; Linux x86_64; rv:109.0) Gecko/20100101 Firefox/113.0" etag="YsyE01TInxGSAAPWIPST" version="21.2.9" type="github">
  <diagram name="Page-1" id="vy1GO2u0X9fyGj-pTcK6">
    <mxGraphModel dx="938" dy="601" grid="1" gridSize="15" guides="1" tooltips="1" connect="1" arrows="1" fold="1" page="1" pageScale="1" pageWidth="850" pageHeight="1100" math="0" shadow="0">
      <root>
        <mxCell id="0" />
        <mxCell id="1" parent="0" />
        <mxCell id="kZ_EENfbCAI2w6JkkueP-1" value="" style="endArrow=classic;html=1;rounded=0;" parent="1" edge="1">
          <mxGeometry width="50" height="50" relative="1" as="geometry">
            <mxPoint x="60" y="600" as="sourcePoint" />
            <mxPoint x="660" y="600" as="targetPoint" />
          </mxGeometry>
        </mxCell>
        <mxCell id="kZ_EENfbCAI2w6JkkueP-3" value="" style="endArrow=classic;html=1;rounded=0;" parent="1" edge="1">
          <mxGeometry width="50" height="50" relative="1" as="geometry">
            <mxPoint x="300" y="600" as="sourcePoint" />
            <mxPoint x="300" y="210" as="targetPoint" />
          </mxGeometry>
        </mxCell>
        <mxCell id="kZ_EENfbCAI2w6JkkueP-5" value="&lt;div&gt;k&lt;/div&gt;" style="text;html=1;strokeColor=none;fillColor=none;align=center;verticalAlign=middle;whiteSpace=wrap;rounded=0;" parent="1" vertex="1">
          <mxGeometry x="270" y="600" width="60" height="30" as="geometry" />
        </mxCell>
        <mxCell id="kZ_EENfbCAI2w6JkkueP-6" value="k+1" style="text;html=1;align=center;verticalAlign=middle;resizable=0;points=[];autosize=1;strokeColor=none;fillColor=none;" parent="1" vertex="1">
          <mxGeometry x="308" y="600" width="45" height="30" as="geometry" />
        </mxCell>
        <mxCell id="kZ_EENfbCAI2w6JkkueP-7" value="k+2" style="text;html=1;align=center;verticalAlign=middle;resizable=0;points=[];autosize=1;strokeColor=none;fillColor=none;" parent="1" vertex="1">
          <mxGeometry x="339" y="600" width="45" height="30" as="geometry" />
        </mxCell>
        <mxCell id="kZ_EENfbCAI2w6JkkueP-8" value="k+W" style="text;html=1;align=center;verticalAlign=middle;resizable=0;points=[];autosize=1;strokeColor=none;fillColor=none;" parent="1" vertex="1">
          <mxGeometry x="390.5" y="600" width="60" height="30" as="geometry" />
        </mxCell>
        <mxCell id="kZ_EENfbCAI2w6JkkueP-9" value="k + P" style="text;html=1;align=center;verticalAlign=middle;resizable=0;points=[];autosize=1;strokeColor=none;fillColor=none;" parent="1" vertex="1">
          <mxGeometry x="630" y="600" width="60" height="30" as="geometry" />
        </mxCell>
        <mxCell id="kZ_EENfbCAI2w6JkkueP-10" value="k + M - 1 " style="text;html=1;align=center;verticalAlign=middle;resizable=0;points=[];autosize=1;strokeColor=none;fillColor=none;" parent="1" vertex="1">
          <mxGeometry x="471" y="600" width="75" height="30" as="geometry" />
        </mxCell>
        <mxCell id="kZ_EENfbCAI2w6JkkueP-14" value="" style="endArrow=none;html=1;rounded=0;exitX=0.467;exitY=0.033;exitDx=0;exitDy=0;exitPerimeter=0;" parent="1" edge="1">
          <mxGeometry width="50" height="50" relative="1" as="geometry">
            <mxPoint x="360.0150000000001" y="606.99" as="sourcePoint" />
            <mxPoint x="360" y="591" as="targetPoint" />
          </mxGeometry>
        </mxCell>
        <mxCell id="kZ_EENfbCAI2w6JkkueP-15" value="" style="endArrow=none;html=1;rounded=0;" parent="1" edge="1">
          <mxGeometry width="50" height="50" relative="1" as="geometry">
            <mxPoint x="419.75" y="607" as="sourcePoint" />
            <mxPoint x="420" y="592" as="targetPoint" />
          </mxGeometry>
        </mxCell>
        <mxCell id="kZ_EENfbCAI2w6JkkueP-16" value="" style="endArrow=none;html=1;rounded=0;" parent="1" edge="1">
          <mxGeometry width="50" height="50" relative="1" as="geometry">
            <mxPoint x="510" y="606" as="sourcePoint" />
            <mxPoint x="510" y="591" as="targetPoint" />
          </mxGeometry>
        </mxCell>
        <mxCell id="kZ_EENfbCAI2w6JkkueP-17" value="" style="endArrow=none;dashed=1;html=1;strokeWidth=2;rounded=0;fillColor=#f8cecc;strokeColor=#b85450;" parent="1" edge="1">
          <mxGeometry width="50" height="50" relative="1" as="geometry">
            <mxPoint x="300" y="346" as="sourcePoint" />
            <mxPoint x="660" y="345" as="targetPoint" />
          </mxGeometry>
        </mxCell>
        <mxCell id="kZ_EENfbCAI2w6JkkueP-22" value="" style="ellipse;whiteSpace=wrap;html=1;aspect=fixed;fillColor=#e1d5e7;strokeColor=#9673a6;" parent="1" vertex="1">
          <mxGeometry x="326" y="363" width="8" height="8" as="geometry" />
        </mxCell>
        <mxCell id="kZ_EENfbCAI2w6JkkueP-23" value="" style="ellipse;whiteSpace=wrap;html=1;aspect=fixed;fillColor=#e1d5e7;strokeColor=#9673a6;" parent="1" vertex="1">
          <mxGeometry x="356" y="332" width="8" height="8" as="geometry" />
        </mxCell>
        <mxCell id="kZ_EENfbCAI2w6JkkueP-25" value="" style="ellipse;whiteSpace=wrap;html=1;aspect=fixed;fillColor=#e1d5e7;strokeColor=#9673a6;" parent="1" vertex="1">
          <mxGeometry x="385" y="312" width="8" height="8" as="geometry" />
        </mxCell>
        <mxCell id="kZ_EENfbCAI2w6JkkueP-33" value="" style="ellipse;whiteSpace=wrap;html=1;aspect=fixed;fillColor=#e1d5e7;strokeColor=#9673a6;" parent="1" vertex="1">
          <mxGeometry x="416" y="302" width="8" height="8" as="geometry" />
        </mxCell>
        <mxCell id="kZ_EENfbCAI2w6JkkueP-34" value="" style="ellipse;whiteSpace=wrap;html=1;aspect=fixed;fillColor=#e1d5e7;strokeColor=#9673a6;" parent="1" vertex="1">
          <mxGeometry x="445" y="314" width="8" height="8" as="geometry" />
        </mxCell>
        <mxCell id="kZ_EENfbCAI2w6JkkueP-35" value="" style="ellipse;whiteSpace=wrap;html=1;aspect=fixed;fillColor=#e1d5e7;strokeColor=#9673a6;" parent="1" vertex="1">
          <mxGeometry x="476" y="329" width="8" height="8" as="geometry" />
        </mxCell>
        <mxCell id="kZ_EENfbCAI2w6JkkueP-36" value="" style="ellipse;whiteSpace=wrap;html=1;aspect=fixed;fillColor=#e1d5e7;strokeColor=#9673a6;" parent="1" vertex="1">
          <mxGeometry x="504" y="350" width="8" height="8" as="geometry" />
        </mxCell>
        <mxCell id="kZ_EENfbCAI2w6JkkueP-37" value="" style="ellipse;whiteSpace=wrap;html=1;aspect=fixed;fillColor=#e1d5e7;strokeColor=#9673a6;" parent="1" vertex="1">
          <mxGeometry x="536" y="351" width="8" height="8" as="geometry" />
        </mxCell>
        <mxCell id="kZ_EENfbCAI2w6JkkueP-38" value="" style="ellipse;whiteSpace=wrap;html=1;aspect=fixed;fillColor=#e1d5e7;strokeColor=#9673a6;" parent="1" vertex="1">
          <mxGeometry x="565" y="350" width="8" height="8" as="geometry" />
        </mxCell>
        <mxCell id="kZ_EENfbCAI2w6JkkueP-39" value="" style="endArrow=none;html=1;rounded=0;strokeWidth=2;fillColor=#dae8fc;strokeColor=#6c8ebf;" parent="1" edge="1">
          <mxGeometry width="50" height="50" relative="1" as="geometry">
            <mxPoint x="60" y="541" as="sourcePoint" />
            <mxPoint x="180" y="541" as="targetPoint" />
          </mxGeometry>
        </mxCell>
        <mxCell id="kZ_EENfbCAI2w6JkkueP-40" value="" style="endArrow=none;html=1;rounded=0;strokeWidth=2;fillColor=#dae8fc;strokeColor=#6c8ebf;" parent="1" edge="1">
          <mxGeometry width="50" height="50" relative="1" as="geometry">
            <mxPoint x="180" y="541" as="sourcePoint" />
            <mxPoint x="180" y="511" as="targetPoint" />
          </mxGeometry>
        </mxCell>
        <mxCell id="kZ_EENfbCAI2w6JkkueP-41" value="" style="endArrow=none;html=1;rounded=0;strokeWidth=2;fillColor=#dae8fc;strokeColor=#6c8ebf;" parent="1" edge="1">
          <mxGeometry width="50" height="50" relative="1" as="geometry">
            <mxPoint x="180" y="510" as="sourcePoint" />
            <mxPoint x="300" y="510" as="targetPoint" />
          </mxGeometry>
        </mxCell>
        <mxCell id="kZ_EENfbCAI2w6JkkueP-42" value="" style="ellipse;whiteSpace=wrap;html=1;aspect=fixed;fillColor=#e1d5e7;strokeColor=#9673a6;" parent="1" vertex="1">
          <mxGeometry x="595" y="350" width="8" height="8" as="geometry" />
        </mxCell>
        <mxCell id="kZ_EENfbCAI2w6JkkueP-43" value="" style="ellipse;whiteSpace=wrap;html=1;aspect=fixed;fillColor=#e1d5e7;strokeColor=#9673a6;" parent="1" vertex="1">
          <mxGeometry x="625" y="349" width="8" height="8" as="geometry" />
        </mxCell>
        <mxCell id="kZ_EENfbCAI2w6JkkueP-44" value="" style="ellipse;whiteSpace=wrap;html=1;aspect=fixed;fillColor=#e1d5e7;strokeColor=#9673a6;" parent="1" vertex="1">
          <mxGeometry x="656" y="349" width="8" height="8" as="geometry" />
        </mxCell>
        <mxCell id="kZ_EENfbCAI2w6JkkueP-47" value="" style="endArrow=none;dashed=1;html=1;rounded=0;strokeWidth=2;fillColor=#dae8fc;strokeColor=#6c8ebf;" parent="1" edge="1">
          <mxGeometry width="50" height="50" relative="1" as="geometry">
            <mxPoint x="510" y="540" as="sourcePoint" />
            <mxPoint x="660" y="540" as="targetPoint" />
          </mxGeometry>
        </mxCell>
        <mxCell id="kZ_EENfbCAI2w6JkkueP-48" value="" style="endArrow=none;dashed=1;html=1;rounded=0;strokeWidth=2;fillColor=#dae8fc;strokeColor=#6c8ebf;" parent="1" edge="1">
          <mxGeometry width="50" height="50" relative="1" as="geometry">
            <mxPoint x="300" y="450" as="sourcePoint" />
            <mxPoint x="330" y="450" as="targetPoint" />
          </mxGeometry>
        </mxCell>
        <mxCell id="kZ_EENfbCAI2w6JkkueP-49" value="" style="endArrow=none;dashed=1;html=1;rounded=0;strokeWidth=2;fillColor=#dae8fc;strokeColor=#6c8ebf;" parent="1" edge="1">
          <mxGeometry width="50" height="50" relative="1" as="geometry">
            <mxPoint x="330" y="464" as="sourcePoint" />
            <mxPoint x="360" y="464" as="targetPoint" />
          </mxGeometry>
        </mxCell>
        <mxCell id="kZ_EENfbCAI2w6JkkueP-50" value="" style="endArrow=none;dashed=1;html=1;rounded=0;strokeWidth=2;fillColor=#dae8fc;strokeColor=#6c8ebf;" parent="1" edge="1">
          <mxGeometry width="50" height="50" relative="1" as="geometry">
            <mxPoint x="360" y="509" as="sourcePoint" />
            <mxPoint x="390" y="509" as="targetPoint" />
          </mxGeometry>
        </mxCell>
        <mxCell id="kZ_EENfbCAI2w6JkkueP-52" value="" style="endArrow=none;dashed=1;html=1;rounded=0;strokeWidth=2;fillColor=#dae8fc;strokeColor=#6c8ebf;" parent="1" edge="1">
          <mxGeometry width="50" height="50" relative="1" as="geometry">
            <mxPoint x="390" y="555" as="sourcePoint" />
            <mxPoint x="420" y="555" as="targetPoint" />
          </mxGeometry>
        </mxCell>
        <mxCell id="kZ_EENfbCAI2w6JkkueP-53" value="" style="endArrow=none;dashed=1;html=1;rounded=0;strokeWidth=2;fillColor=#dae8fc;strokeColor=#6c8ebf;" parent="1" edge="1">
          <mxGeometry width="50" height="50" relative="1" as="geometry">
            <mxPoint x="420" y="571" as="sourcePoint" />
            <mxPoint x="510" y="571" as="targetPoint" />
          </mxGeometry>
        </mxCell>
        <mxCell id="kZ_EENfbCAI2w6JkkueP-56" value="" style="endArrow=none;dashed=1;html=1;rounded=0;strokeWidth=2;fillColor=#dae8fc;strokeColor=#6c8ebf;" parent="1" edge="1">
          <mxGeometry width="50" height="50" relative="1" as="geometry">
            <mxPoint x="330" y="450" as="sourcePoint" />
            <mxPoint x="330" y="465" as="targetPoint" />
          </mxGeometry>
        </mxCell>
        <mxCell id="kZ_EENfbCAI2w6JkkueP-57" value="" style="endArrow=none;dashed=1;html=1;rounded=0;strokeWidth=2;fillColor=#dae8fc;strokeColor=#6c8ebf;" parent="1" edge="1">
          <mxGeometry width="50" height="50" relative="1" as="geometry">
            <mxPoint x="360" y="465" as="sourcePoint" />
            <mxPoint x="360" y="509" as="targetPoint" />
          </mxGeometry>
        </mxCell>
        <mxCell id="kZ_EENfbCAI2w6JkkueP-58" value="" style="endArrow=none;dashed=1;html=1;rounded=0;strokeWidth=2;fillColor=#dae8fc;strokeColor=#6c8ebf;" parent="1" edge="1">
          <mxGeometry width="50" height="50" relative="1" as="geometry">
            <mxPoint x="390" y="508" as="sourcePoint" />
            <mxPoint x="390" y="555" as="targetPoint" />
          </mxGeometry>
        </mxCell>
        <mxCell id="kZ_EENfbCAI2w6JkkueP-59" value="" style="endArrow=none;dashed=1;html=1;rounded=0;strokeWidth=2;fillColor=#dae8fc;strokeColor=#6c8ebf;" parent="1" edge="1">
          <mxGeometry width="50" height="50" relative="1" as="geometry">
            <mxPoint x="510" y="540" as="sourcePoint" />
            <mxPoint x="510" y="570" as="targetPoint" />
          </mxGeometry>
        </mxCell>
        <mxCell id="kZ_EENfbCAI2w6JkkueP-60" value="" style="endArrow=none;html=1;rounded=0;exitX=0.467;exitY=0.033;exitDx=0;exitDy=0;exitPerimeter=0;" parent="1" edge="1">
          <mxGeometry width="50" height="50" relative="1" as="geometry">
            <mxPoint x="330" y="607" as="sourcePoint" />
            <mxPoint x="330" y="591" as="targetPoint" />
          </mxGeometry>
        </mxCell>
        <mxCell id="kZ_EENfbCAI2w6JkkueP-61" value="" style="endArrow=none;dashed=1;html=1;rounded=0;strokeWidth=2;fillColor=#dae8fc;strokeColor=#6c8ebf;" parent="1" edge="1">
          <mxGeometry width="50" height="50" relative="1" as="geometry">
            <mxPoint x="420" y="572" as="sourcePoint" />
            <mxPoint x="420" y="557" as="targetPoint" />
          </mxGeometry>
        </mxCell>
        <mxCell id="kZ_EENfbCAI2w6JkkueP-62" value="" style="endArrow=classic;startArrow=classic;html=1;rounded=0;" parent="1" edge="1">
          <mxGeometry width="50" height="50" relative="1" as="geometry">
            <mxPoint x="300" y="420" as="sourcePoint" />
            <mxPoint x="510" y="420" as="targetPoint" />
          </mxGeometry>
        </mxCell>
        <mxCell id="kZ_EENfbCAI2w6JkkueP-63" value="&lt;i&gt;Control horizon, M&lt;/i&gt;" style="text;html=1;align=center;verticalAlign=middle;resizable=0;points=[];autosize=1;strokeColor=none;fillColor=none;" parent="1" vertex="1">
          <mxGeometry x="334" y="390" width="135" height="30" as="geometry" />
        </mxCell>
        <mxCell id="kZ_EENfbCAI2w6JkkueP-65" value="" style="endArrow=classic;startArrow=classic;html=1;rounded=0;" parent="1" edge="1">
          <mxGeometry width="50" height="50" relative="1" as="geometry">
            <mxPoint x="300" y="480" as="sourcePoint" />
            <mxPoint x="660.5" y="480" as="targetPoint" />
          </mxGeometry>
        </mxCell>
        <mxCell id="kZ_EENfbCAI2w6JkkueP-66" value="&lt;i&gt;Prediction horizon, P&lt;/i&gt;" style="text;html=1;align=center;verticalAlign=middle;resizable=0;points=[];autosize=1;strokeColor=none;fillColor=none;" parent="1" vertex="1">
          <mxGeometry x="416" y="445" width="135" height="30" as="geometry" />
        </mxCell>
        <mxCell id="kZ_EENfbCAI2w6JkkueP-67" value="" style="endArrow=none;html=1;rounded=0;exitX=0.467;exitY=0.033;exitDx=0;exitDy=0;exitPerimeter=0;" parent="1" edge="1">
          <mxGeometry width="50" height="50" relative="1" as="geometry">
            <mxPoint x="270" y="608" as="sourcePoint" />
            <mxPoint x="270" y="592" as="targetPoint" />
          </mxGeometry>
        </mxCell>
        <mxCell id="kZ_EENfbCAI2w6JkkueP-68" value="" style="endArrow=none;html=1;rounded=0;exitX=0.467;exitY=0.033;exitDx=0;exitDy=0;exitPerimeter=0;" parent="1" edge="1">
          <mxGeometry width="50" height="50" relative="1" as="geometry">
            <mxPoint x="240" y="607" as="sourcePoint" />
            <mxPoint x="240" y="592" as="targetPoint" />
          </mxGeometry>
        </mxCell>
        <mxCell id="kZ_EENfbCAI2w6JkkueP-69" value="k-1" style="text;html=1;strokeColor=none;fillColor=none;align=center;verticalAlign=middle;whiteSpace=wrap;rounded=0;" parent="1" vertex="1">
          <mxGeometry x="240" y="600" width="60" height="30" as="geometry" />
        </mxCell>
        <mxCell id="kZ_EENfbCAI2w6JkkueP-70" value="k-2" style="text;html=1;strokeColor=none;fillColor=none;align=center;verticalAlign=middle;whiteSpace=wrap;rounded=0;" parent="1" vertex="1">
          <mxGeometry x="210" y="600" width="60" height="30" as="geometry" />
        </mxCell>
        <mxCell id="kZ_EENfbCAI2w6JkkueP-71" value="û" style="text;html=1;strokeColor=none;fillColor=none;align=center;verticalAlign=middle;whiteSpace=wrap;rounded=0;" parent="1" vertex="1">
          <mxGeometry x="478" y="515" width="60" height="20" as="geometry" />
        </mxCell>
        <mxCell id="kZ_EENfbCAI2w6JkkueP-72" value="u" style="text;html=1;align=center;verticalAlign=middle;resizable=0;points=[];autosize=1;strokeColor=none;fillColor=none;" parent="1" vertex="1">
          <mxGeometry x="193" y="505" width="45" height="30" as="geometry" />
        </mxCell>
        <mxCell id="kZ_EENfbCAI2w6JkkueP-73" value="&lt;font style=&quot;font-size: 13px;&quot;&gt;&lt;b&gt;Past&lt;/b&gt;&lt;/font&gt;" style="text;html=1;strokeColor=none;fillColor=none;align=center;verticalAlign=middle;whiteSpace=wrap;rounded=0;" parent="1" vertex="1">
          <mxGeometry x="180.5" y="225" width="120" height="45" as="geometry" />
        </mxCell>
        <mxCell id="kZ_EENfbCAI2w6JkkueP-74" value="" style="endArrow=classic;html=1;rounded=0;entryX=0;entryY=1;entryDx=0;entryDy=0;exitX=1;exitY=1;exitDx=0;exitDy=0;" parent="1" source="kZ_EENfbCAI2w6JkkueP-73" target="kZ_EENfbCAI2w6JkkueP-73" edge="1">
          <mxGeometry width="50" height="50" relative="1" as="geometry">
            <mxPoint x="454.5" y="410" as="sourcePoint" />
            <mxPoint x="504.5" y="360" as="targetPoint" />
          </mxGeometry>
        </mxCell>
        <mxCell id="kZ_EENfbCAI2w6JkkueP-75" value="&lt;b&gt;Future&lt;/b&gt;" style="text;html=1;strokeColor=none;fillColor=none;align=center;verticalAlign=middle;whiteSpace=wrap;rounded=0;" parent="1" vertex="1">
          <mxGeometry x="300.5" y="225" width="120" height="45" as="geometry" />
        </mxCell>
        <mxCell id="kZ_EENfbCAI2w6JkkueP-77" value="" style="endArrow=classic;html=1;rounded=0;exitX=0;exitY=1;exitDx=0;exitDy=0;entryX=1;entryY=1;entryDx=0;entryDy=0;" parent="1" source="kZ_EENfbCAI2w6JkkueP-75" target="kZ_EENfbCAI2w6JkkueP-75" edge="1">
          <mxGeometry width="50" height="50" relative="1" as="geometry">
            <mxPoint x="345.5" y="425" as="sourcePoint" />
            <mxPoint x="395.5" y="375" as="targetPoint" />
          </mxGeometry>
        </mxCell>
        <mxCell id="kZ_EENfbCAI2w6JkkueP-78" value="y" style="text;html=1;strokeColor=none;fillColor=none;align=center;verticalAlign=middle;whiteSpace=wrap;rounded=0;" parent="1" vertex="1">
          <mxGeometry x="153" y="419.5" width="60" height="30" as="geometry" />
        </mxCell>
        <mxCell id="kZ_EENfbCAI2w6JkkueP-79" value="ŷ" style="text;html=1;strokeColor=none;fillColor=none;align=center;verticalAlign=middle;whiteSpace=wrap;rounded=0;" parent="1" vertex="1">
          <mxGeometry x="599" y="363" width="60" height="30" as="geometry" />
        </mxCell>
        <mxCell id="kZ_EENfbCAI2w6JkkueP-85" value="y&lt;sub&gt;ref&lt;/sub&gt;" style="text;html=1;align=center;verticalAlign=middle;resizable=0;points=[];autosize=1;strokeColor=none;fillColor=none;" parent="1" vertex="1">
          <mxGeometry x="253" y="329" width="45" height="30" as="geometry" />
        </mxCell>
        <mxCell id="kZ_EENfbCAI2w6JkkueP-91" value="" style="ellipse;whiteSpace=wrap;html=1;aspect=fixed;fillColor=#e1d5e7;strokeColor=#9673a6;" parent="1" vertex="1">
          <mxGeometry x="104" y="311" width="8" height="8" as="geometry" />
        </mxCell>
        <mxCell id="kZ_EENfbCAI2w6JkkueP-95" value="" style="ellipse;whiteSpace=wrap;html=1;aspect=fixed;fillColor=#e1d5e7;strokeColor=#9673a6;" parent="1" vertex="1">
          <mxGeometry x="119" y="311" width="8" height="8" as="geometry" />
        </mxCell>
        <mxCell id="kZ_EENfbCAI2w6JkkueP-96" value="Output" style="text;html=1;strokeColor=none;fillColor=none;align=center;verticalAlign=middle;whiteSpace=wrap;rounded=0;" parent="1" vertex="1">
          <mxGeometry x="135" y="300.5" width="60" height="30" as="geometry" />
        </mxCell>
        <mxCell id="kZ_EENfbCAI2w6JkkueP-98" value="" style="endArrow=none;html=1;rounded=0;strokeWidth=2;fillColor=#dae8fc;strokeColor=#6c8ebf;" parent="1" edge="1">
          <mxGeometry width="50" height="50" relative="1" as="geometry">
            <mxPoint x="61" y="350" as="sourcePoint" />
            <mxPoint x="91" y="350" as="targetPoint" />
          </mxGeometry>
        </mxCell>
        <mxCell id="kZ_EENfbCAI2w6JkkueP-99" value="" style="endArrow=none;dashed=1;html=1;rounded=0;strokeWidth=2;fillColor=#dae8fc;strokeColor=#6c8ebf;" parent="1" edge="1">
          <mxGeometry width="50" height="50" relative="1" as="geometry">
            <mxPoint x="101" y="350" as="sourcePoint" />
            <mxPoint x="137" y="350" as="targetPoint" />
          </mxGeometry>
        </mxCell>
        <mxCell id="kZ_EENfbCAI2w6JkkueP-100" value="input" style="text;html=1;strokeColor=none;fillColor=none;align=center;verticalAlign=middle;whiteSpace=wrap;rounded=0;" parent="1" vertex="1">
          <mxGeometry x="135" y="334" width="60" height="30" as="geometry" />
        </mxCell>
        <mxCell id="gMyLiDug12FBqyFC097f-2" value="" style="endArrow=classic;startArrow=classic;html=1;rounded=0;" edge="1" parent="1">
          <mxGeometry width="50" height="50" relative="1" as="geometry">
            <mxPoint x="300" y="585" as="sourcePoint" />
            <mxPoint x="420" y="585" as="targetPoint" />
          </mxGeometry>
        </mxCell>
        <mxCell id="gMyLiDug12FBqyFC097f-6" value="&lt;i&gt;Start horizon, W&lt;br&gt;&lt;/i&gt;" style="text;html=1;align=center;verticalAlign=middle;resizable=0;points=[];autosize=1;strokeColor=none;fillColor=none;" vertex="1" parent="1">
          <mxGeometry x="300" y="555" width="120" height="30" as="geometry" />
        </mxCell>
        <mxCell id="gMyLiDug12FBqyFC097f-7" value="" style="endArrow=none;html=1;curved=1;fillColor=#e1d5e7;strokeColor=#9673a6;strokeWidth=2;" edge="1" parent="1">
          <mxGeometry width="50" height="50" relative="1" as="geometry">
            <mxPoint x="60" y="465" as="sourcePoint" />
            <mxPoint x="300" y="405" as="targetPoint" />
            <Array as="points">
              <mxPoint x="240" y="464" />
            </Array>
          </mxGeometry>
        </mxCell>
        <mxCell id="gMyLiDug12FBqyFC097f-8" value="" style="endArrow=none;html=1;rounded=0;strokeWidth=2;fillColor=#e1d5e7;strokeColor=#9673a6;" edge="1" parent="1">
          <mxGeometry width="50" height="50" relative="1" as="geometry">
            <mxPoint x="61" y="315" as="sourcePoint" />
            <mxPoint x="91" y="315" as="targetPoint" />
          </mxGeometry>
        </mxCell>
        <mxCell id="gMyLiDug12FBqyFC097f-9" value="" style="endArrow=none;html=1;rounded=0;exitX=0.467;exitY=0.033;exitDx=0;exitDy=0;exitPerimeter=0;" edge="1" parent="1">
          <mxGeometry width="50" height="50" relative="1" as="geometry">
            <mxPoint x="150" y="608" as="sourcePoint" />
            <mxPoint x="150" y="593" as="targetPoint" />
          </mxGeometry>
        </mxCell>
        <mxCell id="gMyLiDug12FBqyFC097f-10" value="..." style="text;html=1;strokeColor=none;fillColor=none;align=center;verticalAlign=middle;whiteSpace=wrap;rounded=0;" vertex="1" parent="1">
          <mxGeometry x="165" y="597" width="60" height="30" as="geometry" />
        </mxCell>
        <mxCell id="gMyLiDug12FBqyFC097f-11" value="..." style="text;html=1;strokeColor=none;fillColor=none;align=center;verticalAlign=middle;whiteSpace=wrap;rounded=0;" vertex="1" parent="1">
          <mxGeometry x="73" y="597" width="60" height="30" as="geometry" />
        </mxCell>
        <mxCell id="gMyLiDug12FBqyFC097f-12" value="..." style="text;html=1;strokeColor=none;fillColor=none;align=center;verticalAlign=middle;whiteSpace=wrap;rounded=0;" vertex="1" parent="1">
          <mxGeometry x="558" y="597" width="60" height="30" as="geometry" />
        </mxCell>
        <mxCell id="gMyLiDug12FBqyFC097f-13" value="..." style="text;html=1;strokeColor=none;fillColor=none;align=center;verticalAlign=middle;whiteSpace=wrap;rounded=0;" vertex="1" parent="1">
          <mxGeometry x="430" y="597" width="60" height="30" as="geometry" />
        </mxCell>
      </root>
    </mxGraphModel>
  </diagram>
</mxfile>
